:FULLY-SPECIFIED
:DEGREES
943
root 3.8197 16.5923 -3.21339 130.053 -94.4351 -125.933
lowerback 2.89221 0.518105 -4.00433
upperback 1.07124 0.550664 -1.02011
thorax -0.549797 0.26184 1.17927
lowerneck -17.8666 0.196473 0.0313001
upperneck 18.6783 -0.0184717 0.902234
head 8.79092 0.0605421 0.294243
rclavicle 1.59028e-015 2.18663e-015
rhumerus -29.1067 -10.7193 -80.1591
rradius 17.6488
rwrist 36.3901
rhand -27.065 1.87906
rfingers 7.12502
rthumb -0.482906 -28.1001
lclavicle 1.59028e-015 2.18663e-015
lhumerus -27.1067 4.71393 87.2297
lradius 16.7579
lwrist -20.4328
lhand -25.7605 2.01538
lfingers 7.12502
lthumb 0.777097 31.9937
rfemur -20.6097 -6.75901 18.7975
rtibia 66.3111
rfoot -6.6767 -10.3493
rtoes -13.6238
lfemur -11.7988 -11.0718 -28.7187
ltibia 18.3821
lfoot -9.42378 2.47533
ltoes -2.58798
944
root 3.83771 16.5915 -3.20344 131.569 -94.5034 -127.522
lowerback 2.9405 0.428342 -3.99681
upperback 1.14413 0.431185 -0.967973
thorax -0.496327 0.200159 1.23261
lowerneck -17.9699 0.223258 -0.00665511
upperneck 18.8325 0.0231713 0.912248
head 8.86203 0.0782346 0.309661
rclavicle 1.59028e-015 -8.24956e-015
rhumerus -29.046 -11.0145 -79.8801
rradius 17.5459
rwrist 36.8358
rhand -27.1874 1.96809
rfingers 7.12502
rthumb -0.601086 -28.0108
lclavicle 1.59028e-015 -8.24956e-015
lhumerus -26.5333 5.12109 87.1915
lradius 16.7002
lwrist -20.838
lhand -25.8875 2.0402
lfingers 7.12502
lthumb 0.654375 32.0189
rfemur -21.7371 -6.48208 18.9106
rtibia 66.5147
rfoot -7.60661 -10.9789
rtoes -13.1765
lfemur -11.4163 -11.2035 -28.8
ltibia 18.5263
lfoot -9.84528 2.51756
ltoes -2.65085
945
root 3.85528 16.5888 -3.19613 133.392 -94.5806 -129.388
lowerback 2.99011 0.346503 -4.03926
upperback 1.15856 0.319824 -0.898205
thorax -0.50416 0.1445 1.33153
lowerneck -17.939 0.245275 0.0602243
upperneck 18.9636 0.052921 0.813137
head 8.90138 0.0850596 0.268707
rclavicle 9.54166e-015 1.78906e-015
rhumerus -29.0771 -11.0942 -79.7004
rradius 17.5108
rwrist 36.921
rhand -27.1458 1.76643
rfingers 7.12502
rthumb -0.560876 -28.2126
lclavicle 9.54166e-015 1.78906e-015
lhumerus -26.0921 5.26111 87.2665
lradius 16.7368
lwrist -20.897
lhand -26.1959 2.02003
lfingers 7.12502
lthumb 0.356579 31.9995
rfemur -22.8358 -6.19558 19.0431
rtibia 66.4535
rfoot -8.57994 -11.3986
rtoes -13.0254
lfemur -11.0544 -11.2694 -28.8573
ltibia 18.6321
lfoot -10.1938 2.49509
ltoes -2.63007
946
root 3.87452 16.5805 -3.19038 134.726 -94.6868 -130.755
lowerback 3.04937 0.266516 -4.1162
upperback 1.18472 0.209249 -0.841009
thorax -0.504985 0.0887153 1.43693
lowerneck -17.991 0.276337 0.0561037
upperneck 19.1331 0.0946103 0.803357
head 8.96881 0.102424 0.271713
rclavicle -8.74653e-015 9.93923e-017
rhumerus -29.0789 -10.8992 -79.6331
rradius 17.5843
rwrist 36.6451
rhand -27.044 1.79473
rfingers 7.12502
rthumb -0.462609 -28.1845
lclavicle -8.74653e-015 9.93923e-017
lhumerus -25.6016 5.29286 87.3904
lradius 16.8145
lwrist -20.6744
lhand -26.1348 2.05999
lfingers 7.12502
lthumb 0.415526 32.0393
rfemur -23.8983 -5.88278 19.1093
rtibia 66.159
rfoot -9.63126 -11.5964
rtoes -13.2232
lfemur -10.7381 -11.2919 -28.9495
ltibia 18.8121
lfoot -10.5978 2.41894
ltoes -2.78614
947
root 3.89061 16.5755 -3.1847 136.262 -94.823 -132.334
lowerback 3.13084 0.193541 -4.14754
upperback 1.1953 0.107149 -0.821809
thorax -0.534114 0.0379492 1.4776
lowerneck -18.0866 0.283672 0.0779894
upperneck 19.3562 0.0860672 0.83206
head 9.06312 0.102369 0.277326
rclavicle 5.56597e-015 9.83984e-015
rhumerus -29.1449 -10.6103 -79.6619
rradius 17.6848
rwrist 36.2386
rhand -26.9319 1.81767
rfingers 7.12502
rthumb -0.354284 -28.1618
lclavicle 5.56597e-015 9.83984e-015
lhumerus -25.1764 5.02489 87.5565
lradius 16.9593
lwrist -20.4248
lhand -26.2756 2.09487
lfingers 7.12502
lthumb 0.279525 32.0744
rfemur -24.8447 -5.46874 19.1544
rtibia 65.6154
rfoot -10.6158 -11.729
rtoes -13.3106
lfemur -10.4408 -11.3951 -29.0471
ltibia 19.0524
lfoot -11.0699 2.38285
ltoes -2.99693
948
root 3.90632 16.5587 -3.17977 137.496 -94.9696 -133.584
lowerback 3.16224 0.134633 -4.23174
upperback 1.19762 0.024822 -0.795159
thorax -0.544608 -0.00319079 1.55499
lowerneck -18.1414 0.283696 0.108304
upperneck 19.5327 0.0668728 0.855918
head 9.13421 0.0975025 0.278346
rclavicle -7.15625e-015 3.47873e-016
rhumerus -29.2825 -10.3228 -79.6711
rradius 17.853
rwrist 36.1185
rhand -26.8505 1.66351
rfingers 7.12502
rthumb -0.275715 -28.3161
lclavicle -7.15625e-015 3.47873e-016
lhumerus -24.8397 4.57964 87.7946
lradius 17.2408
lwrist -20.0508
lhand -26.2768 2.29433
lfingers 7.12502
lthumb 0.278421 32.2739
rfemur -25.7979 -5.12318 19.1648
rtibia 64.8938
rfoot -11.4939 -11.7353
rtoes -13.7669
lfemur -10.2076 -11.3737 -29.1676
ltibia 19.3855
lfoot -11.5515 2.26185
ltoes -2.87602
949
root 3.92234 16.5467 -3.17488 139.359 -95.1176 -135.485
lowerback 3.25791 0.0445885 -4.25471
upperback 1.20381 -0.100406 -0.760053
thorax -0.58436 -0.0651365 1.6085
lowerneck -18.2282 0.30657 0.163937
upperneck 19.6698 0.0743909 0.875458
head 9.19755 0.107099 0.277238
rclavicle 1.59028e-015 -6.26172e-015
rhumerus -29.3922 -9.89603 -79.7518
rradius 18.0301
rwrist 35.7906
rhand -26.7077 1.76968
rfingers 7.12502
rthumb -0.13782 -28.21
lclavicle 1.59028e-015 -6.26172e-015
lhumerus -24.4432 4.32161 87.9628
lradius 17.3911
lwrist -19.7881
lhand -26.4973 2.22212
lfingers 7.12502
lthumb 0.0654707 32.2019
rfemur -26.6239 -4.70922 19.2055
rtibia 63.9152
rfoot -12.3176 -11.6944
rtoes -14.3612
lfemur -9.97265 -11.4374 -29.2373
ltibia 19.7664
lfoot -12.0541 2.22355
ltoes -3.48126
950
root 3.9385 16.5332 -3.1737 141.27 -95.2515 -137.402
lowerback 3.34029 -0.0313855 -4.29922
upperback 1.19507 -0.206716 -0.701807
thorax -0.632678 -0.117124 1.69741
lowerneck -18.2388 0.319286 0.178223
upperneck 19.7183 0.079524 0.904438
head 9.21633 0.113575 0.285597
rclavicle 3.18055e-015 -1.50579e-014
rhumerus -29.514 -9.48878 -79.834
rradius 18.1947
rwrist 35.1555
rhand -26.652 2.03992
rfingers 7.12502
rthumb -0.0839517 -27.9398
lclavicle 3.18055e-015 -1.50579e-014
lhumerus -24.1283 3.90543 88.1857
lradius 17.6808
lwrist -19.5422
lhand -26.3758 2.3107
lfingers 7.12502
lthumb 0.182774 32.2904
rfemur -27.3915 -4.309 19.274
rtibia 62.7342
rfoot -13.1847 -11.607
rtoes -14.6734
lfemur -9.78052 -11.484 -29.2591
ltibia 20.1688
lfoot -12.6142 2.17698
ltoes -3.3719
951
root 3.95325 16.5187 -3.17139 143.068 -95.404 -139.214
lowerback 3.42669 -0.114276 -4.33204
upperback 1.1841 -0.322118 -0.64297
thorax -0.684652 -0.173479 1.78103
lowerneck -18.1933 0.327697 0.12972
upperneck 19.7136 0.0858906 0.984524
head 9.20631 0.121527 0.321842
rclavicle 7.95139e-016 1.36167e-014
rhumerus -29.6664 -8.85191 -80.0036
rradius 18.433
rwrist 34.4944
rhand -26.5121 1.96501
rfingers 7.12502
rthumb 0.0511585 -28.0147
lclavicle 7.95139e-016 1.36167e-014
lhumerus -23.8494 3.25295 88.4839
lradius 18.0457
lwrist -18.8492
lhand -26.3645 2.24672
lfingers 7.12502
lthumb 0.193686 32.2264
rfemur -28.0891 -3.95511 19.3129
rtibia 61.3079
rfoot -13.8896 -11.5918
rtoes -15.5164
lfemur -9.56059 -11.5345 -29.3015
ltibia 20.5421
lfoot -13.0946 2.20758
ltoes -4.2061
952
root 3.96637 16.5084 -3.17013 145.006 -95.5246 -141.159
lowerback 3.49135 -0.188969 -4.31908
upperback 1.1989 -0.423391 -0.588796
thorax -0.698924 -0.223931 1.83371
lowerneck -18.2278 0.333629 0.105476
upperneck 19.6908 0.0845842 1.05902
head 9.20465 0.127878 0.351372
rclavicle -6.36111e-015 -9.19379e-015
rhumerus -29.7839 -8.4062 -80.1438
rradius 18.6637
rwrist 33.9205
rhand -26.5089 2.07356
rfingers 7.12502
rthumb 0.0542653 -27.9062
lclavicle -6.36111e-015 -9.19379e-015
lhumerus -23.5045 2.76384 88.7001
lradius 18.3377
lwrist -18.286
lhand -26.3478 2.23873
lfingers 7.12502
lthumb 0.209809 32.2184
rfemur -28.7047 -3.55571 19.4056
rtibia 59.681
rfoot -14.6211 -11.728
rtoes -16.1769
lfemur -9.30621 -11.5918 -29.2942
ltibia 20.8498
lfoot -13.6437 2.24717
ltoes -4.06744
953
root 3.97922 16.4983 -3.16952 147.252 -95.6077 -143.38
lowerback 3.55743 -0.256583 -4.23154
upperback 1.18648 -0.512998 -0.533631
thorax -0.743287 -0.267292 1.84546
lowerneck -18.2302 0.326563 0.109256
upperneck 19.6198 0.0659323 1.10213
head 9.18058 0.124748 0.362986
rclavicle -8.74653e-015 -6.88292e-015
rhumerus -29.9517 -8.01556 -80.2693
rradius 18.8876
rwrist 33.6536
rhand -26.4009 2.06679
rfingers 7.12502
rthumb 0.158568 -27.9129
lclavicle -8.74653e-015 -6.88292e-015
lhumerus -23.2272 2.27836 88.8888
lradius 18.6831
lwrist -17.937
lhand -26.4101 2.1574
lfingers 7.12502
lthumb 0.149637 32.1371
rfemur -29.2501 -3.15016 19.5513
rtibia 57.8211
rfoot -15.2092 -12.0103
rtoes -17.0608
lfemur -9.06445 -11.6662 -29.214
ltibia 21.0922
lfoot -14.0903 2.30649
ltoes -4.28651
954
root 3.98979 16.4872 -3.16918 148.779 -95.7095 -144.908
lowerback 3.63131 -0.299078 -4.20599
upperback 1.19579 -0.571579 -0.48721
thorax -0.771118 -0.296086 1.8818
lowerneck -18.2514 0.30322 0.11059
upperneck 19.522 0.0275113 1.1414
head 9.15081 0.112075 0.371106
rclavicle -1.27222e-014 4.96962e-017
rhumerus -30.0858 -7.59258 -80.4175
rradius 19.0661
rwrist 33.0097
rhand -26.4313 2.10337
rfingers 7.12502
rthumb 0.129184 -27.8763
lclavicle -1.27222e-014 4.96962e-017
lhumerus -23.0005 1.40819 89.1907
lradius 19.1319
lwrist -17.2496
lhand -26.4502 2.15338
lfingers 7.12502
lthumb 0.110955 32.1331
rfemur -29.6669 -2.74466 19.5903
rtibia 55.7663
rfoot -15.5911 -12.3112
rtoes -16.9925
lfemur -8.71782 -11.7681 -29.2025
ltibia 21.2028
lfoot -14.5629 2.43163
ltoes -4.35679
955
root 4.00029 16.4808 -3.16932 150.256 -95.8109 -146.374
lowerback 3.7025 -0.337024 -4.1806
upperback 1.20028 -0.623921 -0.437546
thorax -0.802712 -0.321592 1.92141
lowerneck -18.2364 0.285354 0.103252
upperneck 19.386 0.000750092 1.17841
head 9.10121 0.103821 0.381207
rclavicle -3.97569e-015 -1.04362e-015
rhumerus -30.2495 -7.27752 -80.5285
rradius 19.2626
rwrist 32.5184
rhand -26.5859 2.28341
rfingers 7.12502
rthumb -0.0201295 -27.6963
lclavicle -3.97569e-015 -1.04362e-015
lhumerus -22.7829 0.772505 89.4232
lradius 19.5916
lwrist -16.7648
lhand -26.3905 2.04788
lfingers 7.12502
lthumb 0.168626 32.0276
rfemur -30.0086 -2.3583 19.6308
rtibia 53.5115
rfoot -15.7963 -12.6811
rtoes -17.7293
lfemur -8.3202 -11.8665 -29.1756
ltibia 21.1995
lfoot -14.9035 2.56362
ltoes -4.95702
956
root 4.00809 16.4747 -3.16946 151.46 -95.945 -147.546
lowerback 3.72537 -0.374703 -4.19681
upperback 1.20579 -0.674968 -0.393909
thorax -0.80581 -0.347055 1.97768
lowerneck -18.2523 0.264538 0.119994
upperneck 19.2889 -0.0277197 1.1713
head 9.07071 0.0916493 0.372163
rclavicle 9.54166e-015 6.72141e-015
rhumerus -30.4045 -6.90789 -80.6581
rradius 19.4441
rwrist 32.1495
rhand -26.5065 2.22143
rfingers 7.12502
rthumb 0.0565242 -27.7583
lclavicle 9.54166e-015 6.72141e-015
lhumerus -22.6 0.188677 89.6618
lradius 20.1083
lwrist -16.0712
lhand -26.3101 1.99163
lfingers 7.12502
lthumb 0.246207 31.9712
rfemur -30.2873 -2.03657 19.6326
rtibia 51.1011
rfoot -15.673 -13.1333
rtoes -18.2907
lfemur -7.86834 -11.952 -29.1845
ltibia 21.0464
lfoot -15.2187 2.62871
ltoes -4.98427
957
root 4.01516 16.4745 -3.16986 151.884 -96.0252 -147.92
lowerback 3.72883 -0.391843 -4.25211
upperback 1.22483 -0.69921 -0.363528
thorax -0.785461 -0.359961 2.04081
lowerneck -18.2801 0.250294 0.103433
upperneck 19.1285 -0.0410892 1.189
head 9.02044 0.0872331 0.379008
rclavicle -9.54166e-015 -8.97016e-015
rhumerus -30.5096 -6.65691 -80.7611
rradius 19.5376
rwrist 31.7324
rhand -26.566 2.32988
rfingers 7.12502
rthumb -0.000921238 -27.6499
lclavicle -9.54166e-015 -8.97016e-015
lhumerus -22.4101 -0.371929 89.8767
lradius 20.6007
lwrist -15.5658
lhand -26.3623 1.92639
lfingers 7.12502
lthumb 0.195792 31.906
rfemur -30.5193 -1.53257 19.5094
rtibia 48.5429
rfoot -15.3945 -13.4233
rtoes -17.9925
lfemur -7.38453 -12.0403 -29.231
ltibia 20.8184
lfoot -15.4532 2.76965
ltoes -5.35641
